<svg width="55" height="55" viewBox="0 0 55 55" fill="none" xmlns="http://www.w3.org/2000/svg">
<path fill-rule="evenodd" clip-rule="evenodd" d="M27.5 51.8333C40.1569 51.8333 50.4167 41.5735 50.4167 28.9167C50.4167 16.2598 40.1569 6 27.5 6C14.8431 6 4.58334 16.2598 4.58334 28.9167C4.58334 41.5735 14.8431 51.8333 27.5 51.8333ZM39.8086 21.6635C39.9158 21.5531 39.9996 21.4222 40.0551 21.2786C40.1106 21.1351 40.1366 20.9818 40.1316 20.8279C40.1266 20.6741 40.0906 20.5229 40.0258 20.3832C39.961 20.2436 39.8688 20.1185 39.7546 20.0153C39.6404 19.9121 39.5065 19.8329 39.3611 19.7826C39.2156 19.7323 39.0615 19.7118 38.908 19.7223C38.7544 19.7328 38.6045 19.7742 38.4673 19.8439C38.3301 19.9136 38.2083 20.0103 38.1093 20.1281L24.3833 35.2955L16.8323 28.0871C16.6126 27.8771 16.3185 27.763 16.0146 27.7699C15.7108 27.7767 15.4221 27.904 15.2121 28.1237C15.0021 28.3435 14.888 28.6376 14.8949 28.9414C14.9017 29.2453 15.029 29.534 15.2488 29.744L23.6523 37.7648L24.5037 38.5783L25.2931 37.7052L39.8074 21.6635H39.8086Z" fill="#0FA2DB"/>
</svg>
