<svg width="109" height="109" viewBox="0 0 109 109" fill="none" xmlns="http://www.w3.org/2000/svg">
<circle cx="54.5" cy="54.5" r="54.5" fill="#D9D9D9"/>
<path fill-rule="evenodd" clip-rule="evenodd" d="M51.8756 56.6694L37.3427 29.3341C37.2592 29.1771 37.2075 29.0052 37.1904 28.8282C37.1734 28.6511 37.1914 28.4725 37.2434 28.3024C37.3484 27.9589 37.5855 27.6713 37.9027 27.5026C38.2198 27.334 38.5909 27.2983 38.9344 27.4033C39.1045 27.4553 39.2626 27.5403 39.3999 27.6534C39.5371 27.7665 39.6507 27.9056 39.7342 28.0626L54.2685 55.3978L56.3295 54.3009C56.9577 53.967 57.6455 53.76 58.3536 53.6919C59.0618 53.6238 59.7764 53.6959 60.4567 53.904C61.137 54.1121 61.7697 54.4522 62.3186 54.9048C62.8674 55.3575 63.3217 55.9138 63.6555 56.5421L64.533 58.1928L73.8362 71.8076L62.0035 78.0977L57.9044 69.9957L55.4886 71.2185L59.612 79.3706L54.5393 82.0667L48.4523 66.7403L47.5762 65.0909C47.2421 64.4628 47.0351 63.7751 46.9669 63.067C46.8987 62.3589 46.9707 61.6443 47.1787 60.964C47.3866 60.2837 47.7266 59.651 48.1791 59.1021C48.6316 58.5532 49.1878 58.0988 49.816 57.7649L51.877 56.6694H51.8756ZM57.5997 56.6937L51.0862 60.1563C50.7721 60.3233 50.494 60.5505 50.2677 60.825C50.0415 61.0994 49.8715 61.4157 49.7675 61.7559C49.6635 62.096 49.6275 62.4533 49.6616 62.8074C49.6957 63.1614 49.7993 63.5053 49.9663 63.8194L50.8424 65.4687L62.1402 59.4616L61.2627 57.8136C61.0958 57.4996 60.8686 57.2215 60.5941 56.9952C60.3197 56.7689 60.0033 56.599 59.6632 56.495C59.323 56.391 58.9657 56.355 58.6117 56.3891C58.2576 56.4232 57.9137 56.5267 57.5997 56.6937Z" fill="black"/>
<path d="M46.0608 69.8833C45.8311 69.6073 45.5012 69.4339 45.1436 69.4012C44.7861 69.3684 44.4302 69.479 44.1541 69.7086H44.1568L44.1419 69.7194L44.0566 69.7844C43.9354 69.8755 43.8117 69.9631 43.6856 70.0471C43.3498 70.2706 42.8487 70.5752 42.2041 70.8813C40.5473 71.6776 38.734 72.0953 36.8958 72.1041C36.5366 72.1041 36.1922 72.2468 35.9383 72.5007C35.6843 72.7547 35.5416 73.0991 35.5416 73.4583C35.5416 73.8174 35.6843 74.1618 35.9383 74.4158C36.1922 74.6698 36.5366 74.8124 36.8958 74.8124C39.1369 74.8038 41.3481 74.2963 43.3687 73.3269C43.999 73.0285 44.6072 72.6854 45.1887 72.3004C45.4064 72.1548 45.6187 72.0012 45.8252 71.84L45.8658 71.8089L45.8793 71.7981L45.8834 71.7926H45.8861L45.8875 71.7899C46.1632 71.56 46.3363 71.23 46.3688 70.8725C46.4014 70.5149 46.2905 70.1591 46.0608 69.8833ZM48.8558 76.7692C48.9545 76.9171 49.0231 77.0831 49.0577 77.2576C49.0923 77.432 49.0921 77.6116 49.0573 77.786C49.0225 77.9604 48.9536 78.1263 48.8547 78.2741C48.7557 78.4219 48.6287 78.5487 48.4807 78.6474L48.478 78.6501L48.4726 78.6528L48.459 78.661L48.417 78.6881C48.1826 78.8372 47.9446 78.9808 47.7034 79.1187C47.2281 79.3909 46.5524 79.7524 45.7399 80.1126C44.1419 80.8236 41.9076 81.5833 39.6041 81.5833C39.245 81.5833 38.9005 81.4406 38.6466 81.1866C38.3926 80.9327 38.25 80.5882 38.25 80.2291C38.25 79.8699 38.3926 79.5255 38.6466 79.2716C38.9005 79.0176 39.245 78.8749 39.6041 78.8749C41.3618 78.8749 43.1927 78.2804 44.6403 77.6372C45.3944 77.3007 46.1263 76.9163 46.8313 76.4862C46.8708 76.4629 46.9096 76.4385 46.9478 76.4131L46.9749 76.3968L46.9776 76.3941C47.1255 76.2954 47.2915 76.2268 47.4659 76.1922C47.6404 76.1576 47.82 76.1578 47.9944 76.1926C48.1688 76.2274 48.3346 76.2963 48.4824 76.3952C48.6302 76.4941 48.7571 76.6212 48.8558 76.7692Z" fill="black"/>
</svg>
