<svg width="109" height="109" viewBox="0 0 109 109" fill="none" xmlns="http://www.w3.org/2000/svg">
<circle cx="54.5" cy="54.5" r="54.5" fill="#D9D9D9"/>
<path d="M78.125 43.75C78.5781 43.75 79.0159 43.9141 79.3573 44.2119C79.6988 44.5097 79.9209 44.9211 79.9825 45.37L80 45.625V66.875C80.0001 68.9503 79.2061 70.9471 77.7808 72.4556C76.3555 73.9641 74.407 74.87 72.335 74.9875L71.875 75H40.1525L41.9525 76.8C42.2697 77.1178 42.4623 77.5388 42.4953 77.9866C42.5283 78.4344 42.3996 78.8791 42.1325 79.24L41.95 79.45C41.6325 79.7676 41.2116 79.9606 40.7639 79.9941C40.3161 80.0276 39.8712 79.8993 39.51 79.6325L39.3 79.45L34.3 74.45L34.14 74.27C34.1341 74.2617 34.1283 74.2534 34.1225 74.245L34.2975 74.45C34.0123 74.1626 33.8275 73.7909 33.7703 73.3901C33.7131 72.9893 33.7866 72.5807 33.98 72.225C34.0666 72.0693 34.1743 71.9263 34.3 71.8L39.3 66.8C39.635 66.4676 40.083 66.2738 40.5547 66.2572C41.0263 66.2405 41.4868 66.4024 41.8444 66.7104C42.2019 67.0184 42.4302 67.4499 42.4836 67.9188C42.537 68.3877 42.4116 68.8595 42.1325 69.24L41.95 69.45L40.15 71.25H71.875C72.9734 71.2499 74.0315 70.8367 74.8393 70.0924C75.647 69.3481 76.1452 68.3272 76.235 67.2325L76.25 66.875V45.625C76.25 45.1277 76.4475 44.6508 76.7992 44.2992C77.1508 43.9475 77.6277 43.75 78.125 43.75ZM70.49 30.3675L70.7 30.55L75.7 35.55C75.7639 35.6132 75.8233 35.6808 75.8775 35.7525L75.7025 35.55C76.0507 35.9005 76.247 36.3739 76.2489 36.868C76.2507 37.362 76.058 37.8369 75.7125 38.19L75.7 38.2L70.7 43.2C70.365 43.5324 69.917 43.7262 69.4453 43.7428C68.9737 43.7595 68.5132 43.5976 68.1556 43.2896C67.7981 42.9816 67.5698 42.5501 67.5164 42.0812C67.463 41.6123 67.5884 41.1405 67.8675 40.76L68.05 40.55L69.845 38.75H38.125C37.027 38.75 35.9692 39.1629 35.1615 39.9067C34.3538 40.6505 33.8553 41.6708 33.765 42.765L33.75 43.125V64.375C33.7499 64.8501 33.5694 65.3074 33.2451 65.6545C32.9207 66.0016 32.4768 66.2127 32.0028 66.2451C31.5288 66.2774 31.0603 66.1287 30.6918 65.8289C30.3232 65.5291 30.0823 65.1006 30.0175 64.63L30 64.375V43.125C29.9999 41.0497 30.7939 39.0529 32.2192 37.5444C33.6445 36.0359 35.593 35.13 37.665 35.0125L38.125 35H69.8475L68.0475 33.2C67.7303 32.8822 67.5377 32.4612 67.5047 32.0134C67.4717 31.5656 67.6004 31.1209 67.8675 30.76L68.05 30.55C68.3675 30.2325 68.7884 30.0394 69.2361 30.0059C69.6839 29.9724 70.1288 30.1007 70.49 30.3675ZM55 45C57.6522 45 60.1957 46.0536 62.0711 47.9289C63.9464 49.8043 65 52.3478 65 55C65 57.6522 63.9464 60.1957 62.0711 62.0711C60.1957 63.9464 57.6522 65 55 65C52.3478 65 49.8043 63.9464 47.9289 62.0711C46.0536 60.1957 45 57.6522 45 55C45 52.3478 46.0536 49.8043 47.9289 47.9289C49.8043 46.0536 52.3478 45 55 45Z" fill="black"/>
</svg>
