<svg width="109" height="109" viewBox="0 0 109 109" fill="none" xmlns="http://www.w3.org/2000/svg">
<circle cx="54.5" cy="54.5" r="54.5" fill="#D9D9D9"/>
<path d="M55 27.5C58.4583 27.5 61.4067 28.7183 63.845 31.155C66.2817 33.5933 67.5 36.5417 67.5 40V45H70C71.375 45 72.5525 45.4892 73.5325 46.4675C74.5108 47.4475 75 48.625 75 50V75C75 76.375 74.5108 77.5525 73.5325 78.5325C72.5525 79.5108 71.375 80 70 80H40C38.625 80 37.4483 79.5108 36.47 78.5325C35.49 77.5525 35 76.375 35 75V50C35 48.625 35.49 47.4475 36.47 46.4675C37.4483 45.4892 38.625 45 40 45H42.5V40C42.5 36.5417 43.7192 33.5933 46.1575 31.155C48.5942 28.7183 51.5417 27.5 55 27.5ZM55 32.5C52.9167 32.5 51.1458 33.2292 49.6875 34.6875C48.2292 36.1458 47.5 37.9167 47.5 40V45H62.5V40C62.5 37.9167 61.7708 36.1458 60.3125 34.6875C58.8542 33.2292 57.0833 32.5 55 32.5ZM40 75H70V50H40V75ZM40 50V75V50ZM52.5 72.5H57.5V65H65V60H57.5V52.5H52.5V60H45V65H52.5V72.5Z" fill="black"/>
</svg>
