<svg width="51" height="51" viewBox="0 0 51 51" fill="none" xmlns="http://www.w3.org/2000/svg">
<path d="M7.14551 11.6271C12.2714 7.39978 18.7244 5.11652 25.3683 5.17932C31.8583 5.17932 38.9191 7.45189 43.5911 11.6693M19.671 28.7505C19.671 24.9665 21.6053 22.4931 25.3894 22.4931C29.1735 22.4931 31.0655 24.9665 31.0655 28.7505H19.671ZM18.54 32.7672C18.54 32.7672 18.3709 38.9929 19.671 41.3078C20.9711 43.6226 25.3683 46.4025 25.3683 46.4025C25.3683 46.4025 29.7549 43.5909 31.0655 41.2761C32.3762 38.9612 32.1965 32.7672 32.1965 32.7672C32.1965 32.7672 27.7148 31.0337 25.3683 31.0337C23.0217 31.0337 18.54 32.7672 18.54 32.7672ZM14.09 17.7048C17.3574 15.2839 21.3022 13.9493 25.3683 13.889C29.4098 13.9604 33.3276 15.2947 36.5725 17.7048H14.09Z" stroke="#0FA2DB" stroke-width="1.27287" stroke-linecap="round" stroke-linejoin="round"/>
<path d="M25.3683 34.2364C24.8898 34.2392 24.4316 34.4305 24.0933 34.7689C23.7549 35.1072 23.5636 35.5654 23.5608 36.0439C23.5596 36.2799 23.6058 36.5138 23.6966 36.7316C23.7874 36.9495 23.9209 37.1469 24.0893 37.3123L23.5714 40.9273H27.1758L26.6367 37.3123C26.8051 37.1469 26.9387 36.9495 27.0294 36.7316C27.1202 36.5138 27.1664 36.2799 27.1652 36.0439C27.1652 35.5663 26.9762 35.1082 26.6395 34.7695C26.3029 34.4309 25.8458 34.2392 25.3683 34.2364V34.2364Z" stroke="#0FA2DB" stroke-width="1.27287" stroke-linecap="round" stroke-linejoin="round"/>
</svg>
