<svg width="64" height="64" viewBox="0 0 64 64" fill="none" xmlns="http://www.w3.org/2000/svg">
<path d="M62.0252 22.559H46.3467L52.1791 16.7266C49.8372 13.661 46.8191 11.1775 43.3599 9.46964C39.9007 7.7618 36.0939 6.87575 32.2361 6.88052C18.3763 6.88052 7.15054 18.1063 7.15054 31.9661C7.15054 37.7044 9.06331 42.941 12.2931 47.1742C16.1186 42.7842 23.2994 39.8053 32.2361 39.8053C41.1728 39.8053 48.3849 42.7842 52.1791 47.1742C55.5244 42.8111 57.3325 37.464 57.3217 31.9661H63.593C63.593 49.2124 49.4824 63.323 32.2361 63.323C14.9898 63.323 0.87915 49.2124 0.87915 31.9661C0.87915 14.7198 14.9898 0.609131 32.2361 0.609131C42.0822 0.609131 50.8935 5.15589 56.6318 12.2739L62.0252 6.88052V22.559ZM32.2361 16.2876C37.4414 16.2876 41.6432 20.4894 41.6432 25.6947C41.6432 30.8999 37.4414 35.1018 32.2361 35.1018C27.0308 35.1018 22.829 30.8999 22.829 25.6947C22.829 20.4894 27.0308 16.2876 32.2361 16.2876Z" fill="white"/>
</svg>
