<svg width="76" height="76" viewBox="0 0 76 76" fill="none" xmlns="http://www.w3.org/2000/svg">
<path d="M52.3467 32.9736H24.1255C23.8021 32.9736 23.5375 33.2382 23.5375 33.5616V63.1057C23.5375 63.4291 23.8021 63.6936 24.1255 63.6936H52.3467C52.6701 63.6936 52.9347 63.4291 52.9347 63.1057V33.5616C52.9347 33.2382 52.6701 32.9736 52.3467 32.9736ZM28.2411 37.6772H48.2311V46.2758H28.2411V37.6772ZM48.2311 58.9901H28.2411V50.3914H48.2311V58.9901Z" fill="white"/>
<path d="M31.7687 55.1684C31.7687 55.7921 32.0165 56.3903 32.4576 56.8313C32.8986 57.2724 33.4968 57.5201 34.1205 57.5201C34.7442 57.5201 35.3424 57.2724 35.7835 56.8313C36.2245 56.3903 36.4723 55.7921 36.4723 55.1684C36.4723 54.5446 36.2245 53.9464 35.7835 53.5054C35.3424 53.0644 34.7442 52.8166 34.1205 52.8166C33.4968 52.8166 32.8986 53.0644 32.4576 53.5054C32.0165 53.9464 31.7687 54.5446 31.7687 55.1684ZM31.7687 42.0866C31.7687 42.7104 32.0165 43.3085 32.4576 43.7496C32.8986 44.1906 33.4968 44.4384 34.1205 44.4384C34.7442 44.4384 35.3424 44.1906 35.7835 43.7496C36.2245 43.3085 36.4723 42.7104 36.4723 42.0866C36.4723 41.4629 36.2245 40.8647 35.7835 40.4237C35.3424 39.9826 34.7442 39.7349 34.1205 39.7349C33.4968 39.7349 32.8986 39.9826 32.4576 40.4237C32.0165 40.8647 31.7687 41.4629 31.7687 42.0866Z" fill="white"/>
<path d="M60.2399 27.3074C56.8739 18.4221 48.2973 12.1017 38.2508 12.1017C28.2043 12.1017 19.6277 18.4147 16.2617 27.3C9.93401 28.9683 5.27457 34.7522 5.31131 41.6164C5.35541 49.2891 11.3083 55.5286 18.8046 56.1974C19.15 56.2268 19.444 55.9549 19.444 55.6095V51.1705C19.444 50.8765 19.2235 50.6266 18.9295 50.5899C16.9452 50.34 15.0712 49.4728 13.6307 48.0544C11.8669 46.3273 10.8968 44.0049 10.8968 41.5429C10.8968 39.4851 11.5656 37.5449 12.8223 35.9281C14.0496 34.3553 15.7767 33.2162 17.6802 32.7164L20.4655 31.9815L21.4871 29.2843C22.1191 27.6087 23.001 26.0359 24.1108 24.6175C25.2058 23.2065 26.5066 21.9718 27.9618 20.9429C30.9824 18.8189 34.5394 17.6945 38.2508 17.6945C41.9622 17.6945 45.5192 18.8189 48.5398 20.9502C50.0023 21.9791 51.2958 23.2138 52.3908 24.6249C53.5006 26.0433 54.3825 27.616 55.0145 29.2917L56.0287 31.9815L58.8068 32.7164C62.7901 33.7747 65.5754 37.3979 65.5754 41.5356C65.5754 44.0049 64.6053 46.32 62.8415 48.047C61.4084 49.4581 59.5417 50.3327 57.5574 50.5825C57.2634 50.6193 57.0503 50.8692 57.0503 51.1631V55.6095C57.0503 55.9549 57.3516 56.2268 57.697 56.1974C65.1712 55.5213 71.1095 49.2891 71.1609 41.6311C71.205 34.7669 66.5529 28.983 60.2399 27.3074Z" fill="white"/>
</svg>
