<svg width="68" height="56" viewBox="0 0 68 56" fill="none" xmlns="http://www.w3.org/2000/svg">
<path d="M34.4835 21.4111V42.6366M15.1645 21.836C8.26129 23.4775 3.12659 29.6846 3.12659 37.0896C3.12659 45.7488 10.1458 52.768 18.8051 52.768C20.2898 52.768 21.7275 52.5611 23.09 52.1754L15.1645 21.836ZM53.3839 21.836C60.2872 23.4775 65.4203 29.6846 65.4203 37.0896C65.4203 45.7488 58.401 52.768 49.7418 52.768C48.2571 52.768 46.8194 52.5611 45.4585 52.1754L53.3839 21.836ZM53.2977 21.4111C53.2977 11.021 44.8737 2.59692 34.4835 2.59692C24.0934 2.59692 15.6694 11.021 15.6694 21.4111H53.2977ZM23.6105 37.2761L34.4835 48.1837L45.6654 37.0896L23.6105 37.2761Z" stroke="white" stroke-width="4.5154" stroke-linecap="round" stroke-linejoin="round"/>
</svg>
